<?xml version="1.0" encoding="utf-8"?>
<!-- Generator: Adobe Illustrator 23.0.1, SVG Export Plug-In . SVG Version: 6.00 Build 0)  -->
<svg version="1.1" id="Layer_1" xmlns="http://www.w3.org/2000/svg" xmlns:xlink="http://www.w3.org/1999/xlink" x="0px" y="0px"
	 viewBox="0 0 1000 1000" style="enable-background:new 0 0 1000 1000;" xml:space="preserve">
<style type="text/css">
	.st0{fill:#95BF47;}
	.st1{fill:#5E8E3E;}
	.st2{fill:#FFFFFF;}
</style>
<g>
	<path class="st0" d="M272.1,392.3c-0.3-1.6-1.5-2.8-3.1-2.9c-1.2-0.2-28.5-2.1-28.5-2.1l-20.8-20.8c-1.9-2.1-6-1.5-7.6-1
		c-0.2,0-4.2,1.2-10.6,3.3c-6.3-18.1-17.4-34.8-36.9-34.8h-1.7c-5.6-7.3-12.5-10.6-18.3-10.6c-45.6,0.2-67.3,57-74.1,86.1l-31.8,9.8
		c-9.8,3.1-10.1,3.3-11.4,12.7l-26.8,207l201.2,37.7l109.1-23.5C310.6,652.9,272.3,394.3,272.1,392.3L272.1,392.3z M190.3,372.3
		c-5.1,1.7-10.9,3.3-17.1,5.2v-3.7c0.2-9.4-1.2-18.7-4.2-27.6C179.3,347.8,186.2,359.2,190.3,372.3z M156.8,348.6
		c3.3,9.8,5,20.1,4.6,30.5v1.9l-35.2,10.9c6.9-25.7,19.6-38.4,30.6-43.2L156.8,348.6z M143.3,336c2.1,0,4.1,0.7,5.8,1.9
		c-14.7,6.8-30.2,24.1-36.8,58.6L84.5,405C92.3,378.8,110.6,335.9,143.3,336L143.3,336z"/>
	<path class="st1" d="M269,389.4c-1.2-0.2-28.5-2.1-28.5-2.1l-20.8-20.8c-0.8-0.8-1.8-1.2-2.9-1.2l-15.2,311.3L310.6,653
		l-38.5-260.5C271.9,390.9,270.6,389.6,269,389.4L269,389.4z"/>
	<path class="st2" d="M164.5,449.7L151,489.7c-8.2-4-17.1-6.1-26.2-6.3c-21.2,0-22.3,13.3-22.3,16.7c0,18.2,47.6,25.2,47.6,68.1
		c0,33.7-21.4,55.4-50.2,55.4c-34.5,0-52.2-21.4-52.2-21.4l9.2-30.6c0,0,18.1,15.6,33.5,15.6c7.5,0.3,13.8-5.6,14.1-13.1
		c0-0.2,0-0.5,0-0.7c0-23.9-39.1-25-39.1-64.1c0-32.9,23.7-64.9,71.4-64.9C155.6,444.5,164.5,449.7,164.5,449.7L164.5,449.7z"/>
	<path d="M405.3,509.2c-7.8-4.2-11.8-7.8-11.8-12.7c0-6.3,5.5-10.3,14.3-10.3c6.6,0.1,13.1,1.6,19.1,4.2l7.2-21.8
		c0,0-6.6-5.1-25.9-5.1c-26.9,0-45.6,15.4-45.6,37c0,12.2,8.7,21.7,20.3,28.4c9.4,5.5,12.7,9.1,12.7,14.8c0,5.7-4.6,10.5-13.4,10.5
		c-13,0-25.2-6.7-25.2-6.7l-7.6,21.8c0,0,11.4,7.6,30.3,7.6c27.6,0,47.5-13.6,47.5-38.2c0.1-13.3-9.9-22.6-21.9-29.6L405.3,509.2z
		 M515.5,463.4c-13.6,0-24.3,6.4-32.6,16.4l-0.5-0.1l11.8-61.8h-30.8l-29.9,157.3h30.8l10.3-53.8c4-20.3,14.5-32.9,24.3-32.9
		c6.9,0,9.6,4.6,9.6,11.4c0,4.6-0.5,9.1-1.3,13.6L495.7,575h30.8l12.1-63.6c1.3-6.6,2.1-13.3,2.2-20c-0.1-17.3-9.3-27.8-25.2-27.8
		L515.5,463.4z M610.2,463.4c-37,0-61.6,33.5-61.6,70.6c0,23.9,14.8,43,42.4,43c36.3,0,61-32.6,61-70.6
		C652.1,484.3,639.1,463.4,610.2,463.4L610.2,463.4z M595.1,553.5c-10.5,0-14.9-8.9-14.9-20c0-17.6,9.1-46.5,25.9-46.5
		c10.9,0,14.5,9.4,14.5,18.5C620.5,524.5,611.4,553.5,595.1,553.5L595.1,553.5z M730.8,463.4c-20.9,0-32.6,18.2-32.6,18.2h-0.5
		l1.8-16.4h-27.3L666,506l-21.4,112.7h30.6l8.5-45.6h0.6c0,0,6.3,4,18.1,4c36.2,0,59.8-37,59.8-74.5
		C762.4,482,753.2,463.5,730.8,463.4L730.8,463.4z M701.3,553.9c-4.6,0.1-9.2-1.5-12.7-4.5l5.1-28.8c3.6-19.1,13.6-32,24.3-32
		c9.4,0,12.2,8.7,12.2,16.9C730.3,525.5,718.6,553.9,701.3,553.9L701.3,553.9z M806.4,419.2c-4.7,0-9.2,1.8-12.6,5.2
		s-5.1,7.9-5,12.6c0,9.1,5.8,15.4,14.5,15.4h0.5c9.6,0.4,17.7-7.1,18.1-16.7c0-0.4,0-0.7,0-1.1c0-8.9-6-15.4-15.4-15.4H806.4z
		 M763.4,574.8h30.8l20.9-109h-30.9 M893.5,465.7H872l1.1-5.1c1.8-10.5,8.1-19.9,18.2-19.9c3.3,0,6.7,0.5,9.9,1.5l5.9-24.1
		c0,0-5.5-2.7-16.7-2.7c-11-0.3-21.7,3.4-30.2,10.3c-10.5,8.9-15.4,21.8-17.9,34.8l-1,5.1h-14.3l-4.5,23.2h14.3l-16.4,86.1h30.9
		l16.4-86.1h21.2l4.2-23.2L893.5,465.7z M967.6,465.8l-27.9,75h-0.5l-7.6-75h-32.4l18.5,100.1c0.4,1.7,0.2,3.5-0.6,5.1
		c-4,7.4-9.8,13.8-16.7,18.5c-5.3,3.7-11.2,6.6-17.3,8.7l8.5,26.1c11.3-3,21.6-8.8,30.1-16.8c14-13.2,27-33.5,40.3-61.1l37.6-80.7
		L967.6,465.8L967.6,465.8z"/>
</g>
</svg>
